<svg xmlns="http://www.w3.org/2000/svg" width="128" height="128" viewBox="0 0 256 256"><g fill="#FF6C2C"><path d="M128 24a104 104 0 1 0 104 104A104.11 104.11 0 0 0 128 24Zm0 192a88 88 0 1 1 88-88a88.1 88.1 0 0 1-88 88Z"/><path d="M184.13 71.87a88.11 88.11 0 0 0-112.26 0A88 88 0 0 0 128 216a88.1 88.1 0 0 0 56.13-144.13ZM128 200a72 72 0 1 1 72-72a72.08 72.08 0 0 1-72 72Z" opacity=".2"/><path d="M128 56a72 72 0 1 0 72 72a72.08 72.08 0 0 0-72-72Zm0 128a56 56 0 1 1 56-56a56.06 56.06 0 0 1-56 56Z"/><path d="M128 96a32 32 0 1 0 32 32a32 32 0 0 0-32-32Zm0 48a16 16 0 1 1 16-16a16 16 0 0 1-16 16Z"/></g></svg>